<svg id="Layer_1" data-name="Layer 1" xmlns="http://www.w3.org/2000/svg" viewBox="0 0 34.82 34.82"><defs><style>.cls-1{fill:#7f766e;}</style></defs><title>Artboard 1</title><g id="Ebene_2" data-name="Ebene 2"><g id="Ebene_1-2" data-name="Ebene 1-2"><g id="icon_login_spinner" data-name="icon login spinner"><path class="cls-1" d="M17.41,34.82A17.41,17.41,0,1,1,34.82,17.41a1,1,0,1,1-2,0A15.38,15.38,0,1,0,21.55,32.27a1,1,0,0,1,1.26.62,1,1,0,0,1-.62,1.27l-.11,0A17.53,17.53,0,0,1,17.41,34.82Z"/><path class="cls-1" d="M26.73,30.22h0l1.8-2.35h5.55l.66-.85L30.05,25.9l.66-.86a6.12,6.12,0,0,0,.67-1.13l.26-.58,2-.24.34-.45-1.89-.74-1.22-1.65-.32.43.28,2-.51.42a5.78,5.78,0,0,0-.91.94l-.67.87-2.3-4.23-.66.87,1.44,5.35-1.78,2.33h0c-.4.51-.51,1.26-.15,1.53s1.05,0,1.44-.54"/></g></g></g></svg>